<svg viewBox="0 0 1600 1100" xmlns="http://www.w3.org/2000/svg">
  <defs>
    <!-- Gradientes -->
    <linearGradient id="primaryGradient" x1="0%" y1="0%" x2="100%" y2="100%">
      <stop offset="0%" style="stop-color:#00ED64;stop-opacity:1" />
      <stop offset="100%" style="stop-color:#5644D4;stop-opacity:1" />
    </linearGradient>
    
    <linearGradient id="bgGradient" x1="0%" y1="0%" x2="100%" y2="100%">
      <stop offset="0%" style="stop-color:#001E2B;stop-opacity:1" />
      <stop offset="50%" style="stop-color:#0D2A3D;stop-opacity:1" />
      <stop offset="100%" style="stop-color:#001E2B;stop-opacity:1" />
    </linearGradient>

    <linearGradient id="shardGradient" x1="0%" y1="0%" x2="0%" y2="100%">
      <stop offset="0%" style="stop-color:#3B82F6;stop-opacity:1" />
      <stop offset="100%" style="stop-color:#5644D4;stop-opacity:1" />
    </linearGradient>

    <linearGradient id="mongoGradient" x1="0%" y1="0%" x2="100%" y2="0%">
      <stop offset="0%" style="stop-color:#00ED64;stop-opacity:1" />
      <stop offset="100%" style="stop-color:#00D757;stop-opacity:1" />
    </linearGradient>

    <linearGradient id="configGradient" x1="0%" y1="0%" x2="100%" y2="100%">
      <stop offset="0%" style="stop-color:#F59E0B;stop-opacity:1" />
      <stop offset="100%" style="stop-color:#D97706;stop-opacity:1" />
    </linearGradient>
    
    <filter id="glow">
      <feGaussianBlur stdDeviation="6" result="coloredBlur"/>
      <feMerge>
        <feMergeNode in="coloredBlur"/>
        <feMergeNode in="SourceGraphic"/>
      </feMerge>
    </filter>
    
    <filter id="shadow">
      <feDropShadow dx="0" dy="6" stdDeviation="10" flood-opacity="0.3"/>
    </filter>

    <filter id="innerShadow">
      <feGaussianBlur in="SourceAlpha" stdDeviation="3"/>
      <feOffset dx="0" dy="2" result="offsetblur"/>
      <feFlood flood-color="#000000" flood-opacity="0.2"/>
      <feComposite in2="offsetblur" operator="in"/>
      <feMerge>
        <feMergeNode/>
        <feMergeNode in="SourceGraphic"/>
      </feMerge>
    </filter>
    
    <!-- Patrón de puntos para fondo -->
    <pattern id="dots" x="0" y="0" width="50" height="50" patternUnits="userSpaceOnUse">
      <circle cx="5" cy="5" r="1.5" fill="#00ED64" opacity="0.1"/>
      <circle cx="25" cy="25" r="1" fill="#5644D4" opacity="0.1"/>
      <circle cx="45" cy="5" r="1" fill="#00ED64" opacity="0.1"/>
      <circle cx="5" cy="45" r="1" fill="#5644D4" opacity="0.1"/>
      <circle cx="45" cy="45" r="1.5" fill="#00ED64" opacity="0.1"/>
    </pattern>

    <!-- Patrón hexagonal -->
    <pattern id="hexPattern" x="0" y="0" width="60" height="52" patternUnits="userSpaceOnUse">
      <polygon points="30,1 45,10 45,30 30,40 15,30 15,10" fill="none" stroke="#00ED64" stroke-width="0.5" opacity="0.1"/>
    </pattern>
  </defs>
  
  <!-- Fondo -->
  <rect width="1600" height="1100" fill="url(#bgGradient)"/>
  <rect width="1600" height="1100" fill="url(#dots)"/>
  <rect width="1600" height="1100" fill="url(#hexPattern)"/>
  
  <!-- Efectos de luz de fondo -->
  <ellipse cx="300" cy="300" rx="300" ry="200" fill="#00ED64" opacity="0.03" filter="url(#glow)"/>
  <ellipse cx="1300" cy="800" rx="350" ry="250" fill="#5644D4" opacity="0.03" filter="url(#glow)"/>
  <ellipse cx="800" cy="550" rx="400" ry="300" fill="#3B82F6" opacity="0.02" filter="url(#glow)"/>
  
  <!-- Título Principal -->
  <text x="800" y="70" text-anchor="middle" fill="#FFFFFF" font-family="-apple-system, BlinkMacSystemFont, 'Segoe UI', Roboto" font-size="48" font-weight="700">
    MongoDB Enterprise Advanced
  </text>
  <text x="800" y="110" text-anchor="middle" fill="#B8C4CE" font-family="-apple-system, BlinkMacSystemFont, 'Segoe UI', Roboto" font-size="24">
    Arquitectura con 3 Nodos y 3 Shards por Nodo
  </text>
  
  <!-- Shard 1 -->
  <g id="shard1">
    <rect x="100" y="200" width="380" height="320" rx="24" fill="url(#shardGradient)" fill-opacity="0.9" filter="url(#shadow)"/>
    <rect x="120" y="220" width="120" height="40" rx="20" fill="#FFFFFF" opacity="0.9"/>
    <text x="180" y="246" text-anchor="middle" fill="#001E2B" font-size="22" font-weight="700">Shard 1</text>
    
    <!-- mongod instances -->
    <g id="shard1-mongods">
      <rect x="140" y="290" width="300" height="60" rx="16" fill="#001E2B" fill-opacity="0.8" stroke="#00ED64" stroke-width="2"/>
      <text x="290" y="325" text-anchor="middle" fill="#00ED64" font-size="18" font-weight="500">mongod</text>
      <circle cx="160" cy="320" r="15" fill="#00ED64" opacity="0.3"/>
      <text x="160" y="325" text-anchor="middle" fill="#FFFFFF" font-size="16">1</text>
      
      <rect x="140" y="370" width="300" height="60" rx="16" fill="#001E2B" fill-opacity="0.8" stroke="#00ED64" stroke-width="2"/>
      <text x="290" y="405" text-anchor="middle" fill="#00ED64" font-size="18" font-weight="500">mongod</text>
      <circle cx="160" cy="400" r="15" fill="#00ED64" opacity="0.3"/>
      <text x="160" y="405" text-anchor="middle" fill="#FFFFFF" font-size="16">2</text>
      
      <rect x="140" y="450" width="300" height="60" rx="16" fill="#001E2B" fill-opacity="0.8" stroke="#00ED64" stroke-width="2"/>
      <text x="290" y="485" text-anchor="middle" fill="#00ED64" font-size="18" font-weight="500">mongod</text>
      <circle cx="160" cy="480" r="15" fill="#00ED64" opacity="0.3"/>
      <text x="160" y="485" text-anchor="middle" fill="#FFFFFF" font-size="16">3</text>
    </g>
    
    <!-- Status indicator -->
    <circle cx="450" cy="240" r="8" fill="#00ED64" filter="url(#glow)">
      <animate attributeName="opacity" values="0.5;1;0.5" dur="2s" repeatCount="indefinite"/>
    </circle>
  </g>
  
  <!-- Shard 2 -->
  <g id="shard2">
    <rect x="560" y="200" width="380" height="320" rx="24" fill="url(#shardGradient)" fill-opacity="0.9" filter="url(#shadow)"/>
    <rect x="580" y="220" width="120" height="40" rx="20" fill="#FFFFFF" opacity="0.9"/>
    <text x="640" y="246" text-anchor="middle" fill="#001E2B" font-size="22" font-weight="700">Shard 2</text>
    
    <!-- mongod instances -->
    <g id="shard2-mongods">
      <rect x="600" y="290" width="300" height="60" rx="16" fill="#001E2B" fill-opacity="0.8" stroke="#00ED64" stroke-width="2"/>
      <text x="750" y="325" text-anchor="middle" fill="#00ED64" font-size="18" font-weight="500">mongod</text>
      <circle cx="620" cy="320" r="15" fill="#00ED64" opacity="0.3"/>
      <text x="620" y="325" text-anchor="middle" fill="#FFFFFF" font-size="16">1</text>
      
      <rect x="600" y="370" width="300" height="60" rx="16" fill="#001E2B" fill-opacity="0.8" stroke="#00ED64" stroke-width="2"/>
      <text x="750" y="405" text-anchor="middle" fill="#00ED64" font-size="18" font-weight="500">mongod</text>
      <circle cx="620" cy="400" r="15" fill="#00ED64" opacity="0.3"/>
      <text x="620" y="405" text-anchor="middle" fill="#FFFFFF" font-size="16">2</text>
      
      <rect x="600" y="450" width="300" height="60" rx="16" fill="#001E2B" fill-opacity="0.8" stroke="#00ED64" stroke-width="2"/>
      <text x="750" y="485" text-anchor="middle" fill="#00ED64" font-size="18" font-weight="500">mongod</text>
      <circle cx="620" cy="480" r="15" fill="#00ED64" opacity="0.3"/>
      <text x="620" y="485" text-anchor="middle" fill="#FFFFFF" font-size="16">3</text>
    </g>
    
    <!-- Status indicator -->
    <circle cx="910" cy="240" r="8" fill="#00ED64" filter="url(#glow)">
      <animate attributeName="opacity" values="0.5;1;0.5" dur="2s" repeatCount="indefinite" begin="0.66s"/>
    </circle>
  </g>
  
  <!-- Shard 3 -->
  <g id="shard3">
    <rect x="1020" y="200" width="380" height="320" rx="24" fill="url(#shardGradient)" fill-opacity="0.9" filter="url(#shadow)"/>
    <rect x="1040" y="220" width="120" height="40" rx="20" fill="#FFFFFF" opacity="0.9"/>
    <text x="1100" y="246" text-anchor="middle" fill="#001E2B" font-size="22" font-weight="700">Shard 3</text>
    
    <!-- mongod instances -->
    <g id="shard3-mongods">
      <rect x="1060" y="290" width="300" height="60" rx="16" fill="#001E2B" fill-opacity="0.8" stroke="#00ED64" stroke-width="2"/>
      <text x="1210" y="325" text-anchor="middle" fill="#00ED64" font-size="18" font-weight="500">mongod</text>
      <circle cx="1080" cy="320" r="15" fill="#00ED64" opacity="0.3"/>
      <text x="1080" y="325" text-anchor="middle" fill="#FFFFFF" font-size="16">1</text>
      
      <rect x="1060" y="370" width="300" height="60" rx="16" fill="#001E2B" fill-opacity="0.8" stroke="#00ED64" stroke-width="2"/>
      <text x="1210" y="405" text-anchor="middle" fill="#00ED64" font-size="18" font-weight="500">mongod</text>
      <circle cx="1080" cy="400" r="15" fill="#00ED64" opacity="0.3"/>
      <text x="1080" y="405" text-anchor="middle" fill="#FFFFFF" font-size="16">2</text>
      
      <rect x="1060" y="450" width="300" height="60" rx="16" fill="#001E2B" fill-opacity="0.8" stroke="#00ED64" stroke-width="2"/>
      <text x="1210" y="485" text-anchor="middle" fill="#00ED64" font-size="18" font-weight="500">mongod</text>
      <circle cx="1080" cy="480" r="15" fill="#00ED64" opacity="0.3"/>
      <text x="1080" y="485" text-anchor="middle" fill="#FFFFFF" font-size="16">3</text>
    </g>
    
    <!-- Status indicator -->
    <circle cx="1370" cy="240" r="8" fill="#00ED64" filter="url(#glow)">
      <animate attributeName="opacity" values="0.5;1;0.5" dur="2s" repeatCount="indefinite" begin="1.33s"/>
    </circle>
  </g>
  
  <!-- Mongos Router -->
  <g id="mongos">
    <rect x="500" y="600" width="500" height="120" rx="24" fill="url(#mongoGradient)" fill-opacity="0.9" filter="url(#shadow)"/>
    <text x="750" y="645" text-anchor="middle" fill="#001E2B" font-size="28" font-weight="700">Mongos</text>
    <text x="750" y="675" text-anchor="middle" fill="#001E2B" font-size="18">Router de consultas</text>
    <rect x="550" y="685" width="400" height="20" rx="10" fill="#001E2B" opacity="0.2"/>
    <rect x="550" y="685" width="320" height="20" rx="10" fill="#FFFFFF" opacity="0.8">
      <animate attributeName="width" values="50;400;50" dur="3s" repeatCount="indefinite"/>
    </rect>
  </g>
  
  <!-- Config Servers -->
  <g id="config-servers">
    <rect x="100" y="600" width="350" height="160" rx="24" fill="url(#configGradient)" fill-opacity="0.9" filter="url(#shadow)"/>
    <text x="275" y="640" text-anchor="middle" fill="#FFFFFF" font-size="24" font-weight="700">Config Servers</text>
    <text x="275" y="670" text-anchor="middle" fill="#FFFFFF" font-size="16">Metadata del cluster</text>
    <text x="275" y="695" text-anchor="middle" fill="#FFFFFF" font-size="20" font-weight="600">CSRS</text>
    
    <!-- Config server nodes -->
    <circle cx="180" cy="730" r="20" fill="#FFFFFF" opacity="0.3"/>
    <text x="180" y="737" text-anchor="middle" fill="#FFFFFF" font-size="16">C1</text>
    <circle cx="275" cy="730" r="20" fill="#FFFFFF" opacity="0.3"/>
    <text x="275" y="737" text-anchor="middle" fill="#FFFFFF" font-size="16">C2</text>
    <circle cx="370" cy="730" r="20" fill="#FFFFFF" opacity="0.3"/>
    <text x="370" y="737" text-anchor="middle" fill="#FFFFFF" font-size="16">C3</text>
  </g>
  
  <!-- Cliente -->
  <g id="cliente">
    <rect x="600" y="800" width="300" height="100" rx="20" fill="#718096" fill-opacity="0.9" filter="url(#shadow)"/>
    <text x="750" y="855" text-anchor="middle" fill="#FFFFFF" font-size="26" font-weight="600">Cliente</text>
    <circle cx="750" cy="830" r="3" fill="#00ED64">
      <animate attributeName="r" values="3;6;3" dur="1s" repeatCount="indefinite"/>
    </circle>
  </g>
  
  <!-- Enterprise Advanced Features -->
  <g id="enterprise-features">
    <rect x="1050" y="600" width="450" height="340" rx="24" fill="#0D2A3D" fill-opacity="0.9" stroke="#00ED64" stroke-width="2" filter="url(#shadow)"/>
    <rect x="1070" y="620" width="250" height="45" rx="22" fill="url(#primaryGradient)"/>
    <text x="1195" y="650" text-anchor="middle" fill="#001E2B" font-size="22" font-weight="700">Enterprise Advanced</text>
    
    <!-- Features list -->
    <g id="features-list">
      <circle cx="1090" cy="700" r="4" fill="#00ED64"/>
      <text x="1110" y="707" fill="#B8C4CE" font-size="18">Advanced Security</text>
      
      <circle cx="1090" cy="740" r="4" fill="#00ED64"/>
      <text x="1110" y="747" fill="#B8C4CE" font-size="18">LDAP Integration</text>
      
      <circle cx="1090" cy="780" r="4" fill="#00ED64"/>
      <text x="1110" y="787" fill="#B8C4CE" font-size="18">Advanced Analytics</text>
      
      <circle cx="1090" cy="820" r="4" fill="#00ED64"/>
      <text x="1110" y="827" fill="#B8C4CE" font-size="18">Encryption at Rest</text>
      
      <circle cx="1090" cy="860" r="4" fill="#00ED64"/>
      <text x="1110" y="867" fill="#B8C4CE" font-size="18">OpsManager</text>
      
      <circle cx="1090" cy="900" r="4" fill="#00ED64"/>
      <text x="1110" y="907" fill="#B8C4CE" font-size="18">Enterprise Support</text>
    </g>
  </g>
  
  <!-- Leyenda -->
  <g id="leyenda">
    <rect x="100" y="950" width="400" height="120" rx="16" fill="#0D2A3D" fill-opacity="0.8" stroke="#B8C4CE" stroke-width="1"/>
    <text x="300" y="985" text-anchor="middle" fill="#B8C4CE" font-size="20" font-weight="600">Leyenda</text>
    
    <rect x="120" y="1005" width="20" height="20" rx="4" fill="url(#shardGradient)"/>
    <text x="150" y="1020" fill="#B8C4CE" font-size="16">Shard</text>
    
    <rect x="220" y="1005" width="20" height="20" rx="4" fill="#00ED64"/>
    <text x="250" y="1020" fill="#B8C4CE" font-size="16">mongod</text>
    
    <rect x="120" y="1035" width="20" height="20" rx="4" fill="url(#configGradient)"/>
    <text x="150" y="1050" fill="#B8C4CE" font-size="16">Configuration Server</text>
    
    <rect x="320" y="1035" width="20" height="20" rx="4" fill="#718096"/>
    <text x="350" y="1050" fill="#B8C4CE" font-size="16">Config Server</text>
  </g>
  
  <!-- Conexiones animadas -->
  <!-- Shards to Mongos -->
  <path d="M 290 520 Q 290 560 500 660" fill="none" stroke="#00ED64" stroke-width="3" opacity="0.6">
    <animate attributeName="stroke-dasharray" values="0 20;20 0" dur="2s" repeatCount="indefinite"/>
  </path>
  <path d="M 750 520 L 750 600" fill="none" stroke="#00ED64" stroke-width="3" opacity="0.6">
    <animate attributeName="stroke-dasharray" values="0 20;20 0" dur="2s" repeatCount="indefinite"/>
  </path>
  <path d="M 1210 520 Q 1210 560 1000 660" fill="none" stroke="#00ED64" stroke-width="3" opacity="0.6">
    <animate attributeName="stroke-dasharray" values="0 20;20 0" dur="2s" repeatCount="indefinite"/>
  </path>
  
  <!-- Config to Mongos -->
  <path d="M 450 680 L 500 660" fill="none" stroke="#F59E0B" stroke-width="2" opacity="0.6"/>
  
  <!-- Mongos to Client -->
  <path d="M 750 720 L 750 800" fill="none" stroke="#B8C4CE" stroke-width="3" opacity="0.6">
    <animate attributeName="stroke-dasharray" values="0 15;15 0" dur="1.5s" repeatCount="indefinite"/>
  </path>
  
  <!-- Performance indicators -->
  <g id="performance">
    <text x="800" y="560" text-anchor="middle" fill="#00ED64" font-size="14" font-weight="500">
      🚀 Throughput: 150K ops/sec | ⚡ Latency: &lt;2ms
    </text>
  </g>
  
  <!-- Logo -->
  <g id="logo" transform="translate(50, 50)">
    <text x="0" y="0" fill="#00ED64" font-size="40" font-weight="700" font-family="monospace">MongoDB</text>
  </g>
  
  <!-- Decorative elements -->
  <circle cx="1500" cy="100" r="50" fill="none" stroke="#00ED64" stroke-width="1" opacity="0.2"/>
  <circle cx="1500" cy="100" r="70" fill="none" stroke="#5644D4" stroke-width="1" opacity="0.1"/>
  <circle cx="100" cy="100" r="40" fill="none" stroke="#5644D4" stroke-width="1" opacity="0.2"/>
  <circle cx="100" cy="100" r="60" fill="none" stroke="#00ED64" stroke-width="1" opacity="0.1"/>
</svg>